<svg xmlns="http://www.w3.org/2000/svg" width="127" height="127">
  <path fill="#1b98e0" d="M26.2 75.1h.3l.3.2.3.3 17.4 22.8V75.1H48v30.1h-2l-.8-.2-.6-.6-17.5-22.6q0 .5.1 1v22.3h-3.6v-30h2.6zm48 0v3.3H59.7v10h11.8v3.2H59.7v10.3h14.5v3.3H55.7V75.1zm26.1 0v3.4h-9.8v26.7h-4V78.5h-9.8v-3.4zM51.9 52.3h-3.1a1.4 1.4 0 0 1-.9-.3 1.7 1.7 0 0 1-.5-.7L44.6 44H31.1l-2.8 7.3a1.5 1.5 0 0 1-.5.7 1.3 1.3 0 0 1-.9.3h-3.2l12-30.1h4.1zM32.2 41.1h11.2l-4.7-12.3-.5-1.3-.4-1.5-.4 1.5-.5 1.3zm39.1-14.2l-.4.5-.5.2a1.5 1.5 0 0 1-.8-.4l-1.2-.8-1.7-.8a7.5 7.5 0 0 0-2.5-.4 7.2 7.2 0 0 0-2.4.4 5.1 5.1 0 0 0-1.7 1 4.1 4.1 0 0 0-1.2 1.4 4.7 4.7 0 0 0-.4 1.8 3.4 3.4 0 0 0 .6 2.1 5.3 5.3 0 0 0 1.6 1.4l2.3 1 2.6.9 2.6 1a9.3 9.3 0 0 1 2.3 1.5 6.7 6.7 0 0 1 1.8 2.3 7.2 7.2 0 0 1 .6 3.2 10.2 10.2 0 0 1-.7 3.7 8.5 8.5 0 0 1-2 3 9.2 9.2 0 0 1-3.2 2 11.7 11.7 0 0 1-4.3.7 13 13 0 0 1-5.3-1.1 12.5 12.5 0 0 1-4.1-2.9l1.2-1.9.4-.4.5-.2.6.2.8.6 1 .7 1.3.7 1.6.6 2.1.2a7.7 7.7 0 0 0 2.6-.4 5.5 5.5 0 0 0 1.9-1.1 4.9 4.9 0 0 0 1.4-1.6 5.8 5.8 0 0 0 .4-2.2 3.8 3.8 0 0 0-.6-2.2 5.1 5.1 0 0 0-1.6-1.6 11.3 11.3 0 0 0-2.3-1l-2.6-.8-2.6-1a8.5 8.5 0 0 1-2.3-1.5 6.8 6.8 0 0 1-1.6-2.3 8.7 8.7 0 0 1 0-6.4 7.9 7.9 0 0 1 1.8-2.6 8.8 8.8 0 0 1 2.7-1.9 10.7 10.7 0 0 1 4-.7 12.6 12.6 0 0 1 4.6.8 10.8 10.8 0 0 1 3.6 2.3zM82.7 41v11.3h-4V22.2h8.9a16.7 16.7 0 0 1 5 .7 9.5 9.5 0 0 1 3.4 1.8 7.6 7.6 0 0 1 2.1 2.9 10.4 10.4 0 0 1 .7 3.8 9.8 9.8 0 0 1-.7 3.8 8.3 8.3 0 0 1-2.2 3 10 10 0 0 1-3.5 2 15.1 15.1 0 0 1-4.8.7zm0-3.2h4.8a9.4 9.4 0 0 0 3.1-.5 6.4 6.4 0 0 0 2.3-1.3 5.3 5.3 0 0 0 1.4-2 6.8 6.8 0 0 0 .5-2.5 5.8 5.8 0 0 0-1.9-4.5q-1.8-1.6-5.4-1.6h-4.8zm15.4 12.1a2.7 2.7 0 0 1 .2-1 2.6 2.6 0 0 1 .5-.8l.8-.6 1-.2 1 .2.8.6a2.7 2.7 0 0 1 .6.8 2.7 2.7 0 0 1 0 2.1 2.7 2.7 0 0 1-.6.8l-.8.6-1 .2-1-.2-.8-.6a2.6 2.6 0 0 1-.7-1.9zM23.6 62.6h79.8v2.5H23.6z"/>
  <!-- <path fill="none" stroke="#1b98e0" stroke-width="2" stroke-miterlimit="10" d="M1 1h125v125H1z"/> -->
</svg>
