<svg xmlns="http://www.w3.org/2000/svg" width="127" height="127" viewBox="0 0 127 127">
<path fill="none" stroke="#1b98e0" stroke-width="4.07" stroke-miterlimit="10" d="M59.6 28.9s-19.7-18.2-18 10.3a67.5 67.5 0 0 0 2.9 15.7c4 13.6 15.5 44.6 34 48.8a6.1 6.1 0 0 0 7.1-4.6C87.2 93.6 87.1 82 78 58" stroke-linecap="round"/>
<path fill="none" stroke="#1b98e0" stroke-width="4.07" stroke-miterlimit="10" d="M87.6 41.8s5-25.6-14.2-13.8a42.2 42.2 0 0 0-9.7 8.3C55.8 45.5 37 69.7 37.3 95c0 0 .6 15 18.3 2.1" stroke-linecap="round"/>
<path fill="none" stroke="#1b98e0" stroke-width="4.07" stroke-miterlimit="10" d="M95.6 75.4s15.3-7.6 5.3-17.1a17.3 17.3 0 0 0-4.8-3.2c-7.6-3.5-36.3-14.8-63.8-3.7 0 0-21.1 8.1-1 21" stroke-linecap="round"/>
<ellipse cx="63.9" cy="63.6" fill="#1b98e0" rx="5.3" ry="5.9"/>
<!-- <path fill="none" stroke="#1b98e0" stroke-width="2" stroke-miterlimit="10" d="M1 1h125v125H1z"/> -->
</svg>
