<svg xmlns="http://www.w3.org/2000/svg" width="127" height="127" viewBox="0 0 127 127">
<!-- <path fill="none" stroke="#1b98e0" stroke-width="2" stroke-miterlimit="10" d="M1 1h125v125H1z"/> -->
<path fill="#1b98e0" d="M102.5 64.5v38h-38v-38h38m1-1h-40v40h40v-40zm-41-39v38h-38v-38h38m1-1h-40v40h40v-40zm0 0h40v40h-40zm-40 40h40v40h-40z"/>
<path fill="#1b98e0" d="M34.6 29.7a35.4 35.4 0 0 1 6.7-.6c3.7 0 6 .6 7.8 2.1a5.9 5.9 0 0 1 2.4 5 6.7 6.7 0 0 1-4.8 6.2 7.3 7.3 0 0 1 5.8 7.1 7.6 7.6 0 0 1-2.5 5.7c-2 1.8-5.2 2.6-9.8 2.6a42.7 42.7 0 0 1-5.7-.3zm3.7 11.6h3.3c3.9 0 6.1-2 6.1-4.7S45.2 32 41.5 32a15.7 15.7 0 0 0-3.2.3zm0 13.6l3.1.2c3.8 0 7.3-1.4 7.3-5.5s-3.3-5.5-7.3-5.5h-3zm47 14.4v28.4h-3.6V69.3z"/>
</svg>
