<svg xmlns="http://www.w3.org/2000/svg" width="127" height="127">
  <!-- <path fill="none" stroke="#1b98e0" stroke-width="2" stroke-miterlimit="10" d="M1 1h125v125H1z"/> -->
  <path fill="#1b98e0" d="M64.2 90.3c-2.7 1.4-8.1 2.7-15.1 2.7-16.2 0-28.3-10.2-28.3-29s12.1-30 29.9-30c7.1 0 11.6 1.5 13.6 2.6l-1.8 6A26.9 26.9 0 0 0 51 40.2c-13.4 0-22.4 8.6-22.4 23.6s8.1 23 22 23a29.6 29.6 0 0 0 12.1-2.4zm10.7 1.9l2.2-16.7h-7v-5h7.7l1.6-12.3h-7.2v-5h8.1L82.5 37h4.9l-2.1 16.2h8.8L96.3 37h5l-2.1 16.2h7v5h-7.7l-1.6 12.3h7.3v5h-8L94 92.2h-5.1l2.2-16.7h-8.9L80 92.2zm16.9-21.7l1.6-12.3h-8.8L83 70.5z"/>
</svg>
