<svg xmlns="http://www.w3.org/2000/svg" width="127" height="127" viewBox="0 0 127 127"><title>css</title><path d="M62.4,50.3a1.2,1.2,0,0,1,.8.4l2.2,2.4a17.6,17.6,0,0,1-6.1,4.6,20.9,20.9,0,0,1-8.7,1.6,20.4,20.4,0,0,1-8.1-1.5,17.7,17.7,0,0,1-6.2-4.3,19.4,19.4,0,0,1-4-6.6A24.8,24.8,0,0,1,31,38.3a23.3,23.3,0,0,1,1.5-8.5,19.5,19.5,0,0,1,4.2-6.7,18.9,18.9,0,0,1,6.5-4.3,22.2,22.2,0,0,1,8.4-1.5,18.7,18.7,0,0,1,13.6,5.2L63.5,25l-.5.5-.7.2-.8-.3-1-.7-1.3-.9L57.3,23l-2.5-.7a17.2,17.2,0,0,0-3.2-.3,15.6,15.6,0,0,0-6,1.1,13.5,13.5,0,0,0-4.7,3.2,14.7,14.7,0,0,0-3.1,5.1,19.5,19.5,0,0,0-1.1,6.7,19.8,19.8,0,0,0,1.1,6.9,15.1,15.1,0,0,0,3,5.1,12.7,12.7,0,0,0,4.5,3.2,14.4,14.4,0,0,0,5.6,1.1l3.3-.2,2.7-.7a11.4,11.4,0,0,0,2.3-1.2l2.2-1.7A1.5,1.5,0,0,1,62.4,50.3Z" fill="#1b98e0"/><path d="M93.7,24.1l-.5.6-.7.2a2,2,0,0,1-1.1-.5l-1.6-1.1-2.4-1.1a10.2,10.2,0,0,0-3.4-.5,10,10,0,0,0-3.3.5,7,7,0,0,0-2.4,1.4,5.6,5.6,0,0,0-1.4,2,6.4,6.4,0,0,0-.5,2.5,4.6,4.6,0,0,0,.8,2.9,7.3,7.3,0,0,0,2.2,1.9,17.1,17.1,0,0,0,3.2,1.4l3.6,1.2,3.6,1.4a12.7,12.7,0,0,1,3.2,2,9.1,9.1,0,0,1,2.2,3,9.8,9.8,0,0,1,.8,4.3,13.9,13.9,0,0,1-.9,5.1,11.7,11.7,0,0,1-2.7,4.1,12.5,12.5,0,0,1-4.3,2.8,15.9,15.9,0,0,1-5.8,1A17.8,17.8,0,0,1,75,57.8a17,17,0,0,1-5.6-3.9L71,51.3l.6-.5.7-.2a2.3,2.3,0,0,1,1.4.6l1.9,1.4A14.8,14.8,0,0,0,78.4,54a11.1,11.1,0,0,0,4,.6,10.6,10.6,0,0,0,3.5-.5,7.5,7.5,0,0,0,2.6-1.5,6.6,6.6,0,0,0,1.6-2.4,7.9,7.9,0,0,0,.6-3.1,5.1,5.1,0,0,0-.8-3.1,7,7,0,0,0-2.2-2,15.5,15.5,0,0,0-3.1-1.4L81,39.6l-3.6-1.4a11.7,11.7,0,0,1-3.1-2A9.2,9.2,0,0,1,72,33.1a11,11,0,0,1-.8-4.6,11,11,0,0,1,3.3-7.8,11.9,11.9,0,0,1,4-2.5,14.5,14.5,0,0,1,5.4-.9,17.4,17.4,0,0,1,6.3,1.1,14.5,14.5,0,0,1,5,3.2Z" fill="#1b98e0"/><path d="M59,73.4l-.6.7-.8.2a2.1,2.1,0,0,1-1.2-.5l-1.7-1.1-2.5-1.1a10.6,10.6,0,0,0-3.5-.5,10.3,10.3,0,0,0-3.4.5A7.3,7.3,0,0,0,43,72.9,5.8,5.8,0,0,0,41.5,75a6.6,6.6,0,0,0-.5,2.6,4.8,4.8,0,0,0,.9,3,7.5,7.5,0,0,0,2.3,2A17.7,17.7,0,0,0,47.4,84l3.7,1.3,3.7,1.5a13.2,13.2,0,0,1,3.3,2.1,9.4,9.4,0,0,1,2.3,3.1,10.2,10.2,0,0,1,.9,4.5,14.4,14.4,0,0,1-1,5.2,12.1,12.1,0,0,1-2.8,4.3,13,13,0,0,1-4.5,2.9,16.5,16.5,0,0,1-6,1,18.4,18.4,0,0,1-7.5-1.5,17.6,17.6,0,0,1-5.8-4.1l1.7-2.7.6-.5.8-.2a2.4,2.4,0,0,1,1.4.7l2,1.5a15.3,15.3,0,0,0,2.9,1.5,11.5,11.5,0,0,0,4.2.7,11,11,0,0,0,3.7-.6,7.8,7.8,0,0,0,2.7-1.6,6.9,6.9,0,0,0,1.7-2.4,8.2,8.2,0,0,0,.6-3.2,5.3,5.3,0,0,0-.9-3.2,7.3,7.3,0,0,0-2.3-2.1,16.1,16.1,0,0,0-3.3-1.4l-3.7-1.2-3.7-1.4a12.2,12.2,0,0,1-3.3-2.1,9.5,9.5,0,0,1-2.3-3.2,12.2,12.2,0,0,1,0-9.1,11.2,11.2,0,0,1,2.5-3.7,12.3,12.3,0,0,1,4.1-2.6,15.1,15.1,0,0,1,5.6-1,18,18,0,0,1,6.5,1.1,15,15,0,0,1,5.1,3.3Z" fill="#1b98e0"/><path d="M82,66.2a15.5,15.5,0,0,1,5,.8,11.6,11.6,0,0,1,3.9,2.2,10,10,0,0,1,2.6,3.4,10.7,10.7,0,0,1,.9,4.5,11.6,11.6,0,0,1-.5,3.6,8.8,8.8,0,0,1-1.5,2.8,8.9,8.9,0,0,1-2.3,2A13,13,0,0,1,87,86.9a11.5,11.5,0,0,1,6.3,3.7,9.9,9.9,0,0,1,2.1,6.5,12.2,12.2,0,0,1-1.1,5.3,11.9,11.9,0,0,1-3,4,13.6,13.6,0,0,1-4.5,2.5,17,17,0,0,1-5.5.9,17.5,17.5,0,0,1-5.8-.8,12,12,0,0,1-4.1-2.3,12.4,12.4,0,0,1-2.7-3.5,26.3,26.3,0,0,1-1.8-4.4l2.3-1,1.2-.3,1.1.3a1.6,1.6,0,0,1,.7.8V99l1,1.9a8.2,8.2,0,0,0,1.6,2,8.7,8.7,0,0,0,2.5,1.6,9.3,9.3,0,0,0,3.7.7,9.7,9.7,0,0,0,3.9-.7,8.5,8.5,0,0,0,2.8-1.9,7.9,7.9,0,0,0,1.7-2.6,7.6,7.6,0,0,0,.6-2.8,10.2,10.2,0,0,0-.5-3.1,5.4,5.4,0,0,0-1.7-2.5A8.6,8.6,0,0,0,84.6,90a20.7,20.7,0,0,0-5.4-.6V85.5a16.5,16.5,0,0,0,4.6-.6,9,9,0,0,0,3.1-1.5A5.7,5.7,0,0,0,88.7,81a8.1,8.1,0,0,0,.5-3,8.2,8.2,0,0,0-.6-3.2A6.2,6.2,0,0,0,87,72.6a6.6,6.6,0,0,0-2.4-1.3,9.7,9.7,0,0,0-3-.4,9,9,0,0,0-3,.5,8.1,8.1,0,0,0-2.4,1.3,7.7,7.7,0,0,0-1.8,2,9.4,9.4,0,0,0-1.1,2.5,2.4,2.4,0,0,1-.7,1.2,1.9,1.9,0,0,1-1.2.4h-.7l-2.8-.5a15.7,15.7,0,0,1,1.6-5.2,12.3,12.3,0,0,1,3-3.8A12.9,12.9,0,0,1,76.9,67,16,16,0,0,1,82,66.2Z" fill="#1b98e0"/><rect x="1" y="1" width="125" height="125" fill="none" stroke="#1b98e0" stroke-miterlimit="10" stroke-width="2"/></svg>