<svg xmlns="http://www.w3.org/2000/svg" width="600" height="478.5">
  <path fill="#13293d" d="M0 356.7h600v41.2a15.4 15.4 0 0 1-15.4 15.4H15.3A15.3 15.3 0 0 1 0 397.9v-41.2z"/>
  <path fill="#13293d" d="M376.3 474.7a12.3 12.3 0 0 1-12.3-11.1l-4.9-50.4H240.9l-4.9 50.4a12.3 12.3 0 0 1-12.2 11.1z"/>
  <path fill="#13293d" d="M192.5 474.2h215v4.3h-215z"/>
  <path fill="#1b98e0" d="M584.7 1.2A14.3 14.3 0 0 1 599 15.5v382.4a14.3 14.3 0 0 1-14.3 14.3H15.3A14.3 14.3 0 0 1 1 397.9V15.5A14.3 14.3 0 0 1 15.3 1.2h569.4m0-1H15.3A15.3 15.3 0 0 0 0 15.5v382.4a15.3 15.3 0 0 0 15.3 15.3h569.4a15.3 15.3 0 0 0 15.3-15.3V15.5A15.3 15.3 0 0 0 584.7.2z"/>
  <path fill="#13293d" d="M.5 357.3v-342A14.8 14.8 0 0 1 15.3.5h569.4a14.8 14.8 0 0 1 14.8 14.8v342z"/>
  <path fill="#1b98e0" d="M584.7 1A14.3 14.3 0 0 1 599 15.3v341.5H1V15.3A14.3 14.3 0 0 1 15.3 1h569.4m0-1H15.3A15.3 15.3 0 0 0 0 15.3v342.5h600V15.3A15.3 15.3 0 0 0 584.7 0z"/>
  <path fill="#1b98e0" d="M300 10.1a2.2 2.2 0 1 1-2.2 2.2 2.2 2.2 0 0 1 2.2-2.2m0-1a3.2 3.2 0 1 0 3.2 3.2 3.2 3.2 0 0 0-3.2-3.2z"/>
  <circle cx="292.5" cy="12.3" r="1.2" fill="#1b98e0"/>
  <path fill="#22a7f0" d="M307.7 384.9a6.3 6.3 0 0 1 3-5.4 6 6 0 0 0-5-2.6c-2.1 0-3.4 1.4-5.1 1.4s-3-1.4-5.1-1.4c-3.8 0-6.7 3.2-6.7 8.5s3.4 12.4 7.1 12.4c1.9 0 2.7-1.2 4.6-1.2s2.7 1.2 4.6 1.2 4.9-3.4 6.2-7.2a6.3 6.3 0 0 1-3.6-5.7zm-7.7-8.6c.1 0 2 .4 4.2-1.7a5.1 5.1 0 0 0 1.7-4.1c-.1 0-2-.4-4.2 1.7a5.1 5.1 0 0 0-1.7 4.1zM24.9 25.2h550.3v309.54H24.9z"/>
</svg>
