<?xml version="1.0" encoding="utf-8"?>
<!-- Generator: Adobe Illustrator 20.0.0, SVG Export Plug-In . SVG Version: 6.00 Build 0)  -->
<svg version="1.1" id="Layer_1" xmlns="http://www.w3.org/2000/svg" xmlns:xlink="http://www.w3.org/1999/xlink" x="0px" y="0px"
	 viewBox="0 0 200 200" style="enable-background:new 0 0 200 200;" xml:space="preserve">
<style type="text/css">
	.st0{fill:#1B98E0;}
	.st1{fill:none;stroke:#1B98E0;stroke-width:3;stroke-miterlimit:10;}
</style>
<g>
	<path class="st0" d="M100,6c51.8,0,94,42.2,94,94s-42.2,94-94,94S6,151.8,6,100S48.2,6,100,6 M100,0C44.8,0,0,44.8,0,100
		s44.8,100,100,100s100-44.8,100-100S155.2,0,100,0L100,0z"/>
</g>
<g>
	<circle class="st1" cx="100" cy="80.4" r="34.9"/>
	<path class="st1" d="M76.6,105.5c0,0-54.4,30.6-13.8,85.4"/>
	<path class="st1" d="M123.4,105.5c0,0,54.4,30.6,13.7,85.4"/>
</g>
</svg>
