<svg xmlns="http://www.w3.org/2000/svg" width="127" height="127">
  <path fill="#1b98e0" d="M97.5 35.5a20.2 20.2 0 0 0-.8-15.5s-4.9-1.3-15.5 6.1l.9.5-1.1-.4a46.7 46.7 0 0 0-14.8-2.4h-.1a46.7 46.7 0 0 0-14.8 2.4l-.6.2.6-.3C40.7 18.7 35.7 20 35.7 20a20.2 20.2 0 0 0-.9 15.3c-4.2 4-6.1 12.1-6.1 17.5a26.4 26.4 0 0 0 .9 6.2c3.7 15.1 9.4 15.8 19.2 19.5 2.4.9 11 3.3 17.2 3.3h.1c6.2 0 14.8-2.4 17.2-3.3 9.8-3.6 15.6-4.4 19.2-19.5a26.4 26.4 0 0 0 .9-6.2c.1-5.4-1.8-13.3-5.9-17.3zM52 87.6s-11.4 5.2-17.1-4.7c0 0-5.3-8.2-10.8-5.7a1 1 0 0 0-.4 1.5 3.3 3.3 0 0 0 1 1s3.4 2 4.4 4a35.7 35.7 0 0 1 2.9 5.2 11.3 11.3 0 0 0 2.5 4c2.7 2.7 8 5.9 16.8 3.6z"/>
  <path fill="#1b98e0" d="M76.4 79.8H55.8s-6.1.8-4 27.3h28.6c2.2-26.5-4-27.3-4-27.3z"/>
  <!-- <path fill="none" stroke="#1b98e0" stroke-width="2" stroke-miterlimit="10" d="M1 1h125v125H1z"/> -->
</svg>
