<svg xmlns="http://www.w3.org/2000/svg" width="127" height="127" viewBox="0 0 127 127">
<path fill="#1b98e0" d="M76.1 29.3h5.8V41H54.4v16.9h5.8a32.2 32.2 0 0 1 9.3 1.3 21.8 21.8 0 0 1 7.2 3.6 16 16 0 0 1 4.7 5.9 18.4 18.4 0 0 1 1.7 8 19.8 19.8 0 0 1-2 9.2 20.2 20.2 0 0 1-5.4 6.6 22.5 22.5 0 0 1-7.7 4 31 31 0 0 1-9 1.3 36.4 36.4 0 0 1-8.1-.9 18.6 18.6 0 0 1-6.8-3v-9.7h8.6v7.7l2.7.5a19.8 19.8 0 0 0 3.5.3 16.8 16.8 0 0 0 6-1 13.4 13.4 0 0 0 4.6-2.9 12.8 12.8 0 0 0 3-4.4 15 15 0 0 0 1-5.7 12.3 12.3 0 0 0-1.4-6.1 12.1 12.1 0 0 0-4-4.2 17.7 17.7 0 0 0-5.9-2.4 33 33 0 0 0-7.2-.8h-6.4V33.8h25.7l1.8-1.8z"/>
<!-- <path fill="none" stroke="#1b98e0" stroke-width="2" stroke-miterlimit="10" d="M1 1h125v125H1z"/> -->
</svg>
