<svg xmlns="http://www.w3.org/2000/svg" width="127" height="127" viewBox="0 0 127 127"><title>illustrator</title>
  <!-- <rect x="1" y="1" width="125" height="125" fill="none" stroke="#1b98e0" stroke-miterlimit="10" stroke-width="2"/> -->
  <path d="M80.2,89H74.9a2.3,2.3,0,0,1-1.5-.5,2.8,2.8,0,0,1-.8-1.2L67.9,75.3H45.4L40.7,87.4a2.7,2.7,0,0,1-.8,1.1,2.2,2.2,0,0,1-1.5.5H33.2L53.2,38.9h6.9ZM47.3,70.4H66L58.1,50a38.1,38.1,0,0,1-1.5-4.7l-.8,2.6L55.2,50Z" fill="#1b98e0"/>
  <path d="M93.8,42.4a4,4,0,0,1-.4,1.7,4.9,4.9,0,0,1-1,1.4,4.6,4.6,0,0,1-1.4,1,4.3,4.3,0,0,1-1.7.4,4.1,4.1,0,0,1-1.7-.4,4.7,4.7,0,0,1-2.4-2.4,4.1,4.1,0,0,1-.4-1.7,4.4,4.4,0,0,1,.4-1.7,4.5,4.5,0,0,1,1-1.4,4.6,4.6,0,0,1,1.4-1,4.1,4.1,0,0,1,1.7-.4,4.3,4.3,0,0,1,1.7.4,4.6,4.6,0,0,1,1.4,1,4.8,4.8,0,0,1,1,1.4A4.2,4.2,0,0,1,93.8,42.4ZM92.4,53.6V89H86.2V53.6Z" fill="#1b98e0"/>
</svg>
