<svg xmlns="http://www.w3.org/2000/svg" width="127" height="127" viewBox="0 0 127 127"><title>invision</title>
<!-- <rect x="1" y="1" width="125" height="125" fill="none" stroke="#1b98e0" stroke-miterlimit="10" stroke-width="2"/> -->
<path d="M55.9,73.4v4.3a59.8,59.8,0,0,1-10.6,11q-4.9,3.7-8.4,3.7t-7.1-5a25.8,25.8,0,0,1-2.3-11,19.7,19.7,0,0,1,.5-4.4A16.4,16.4,0,0,1,29,68.6q.6-1.3,2.4-4.2,8.3-12.9,15.2-12.9,3.6,0,3.6,2.8T47.9,60a25.8,25.8,0,0,1-4.1,5.7,92.5,92.5,0,0,0-6.7,6.9,6.8,6.8,0,0,0-1.6,4.4,4.5,4.5,0,0,0,1.6,3.5,5.9,5.9,0,0,0,4.1,1.4,11.9,11.9,0,0,0,6.1-2A74.7,74.7,0,0,0,55.9,73.4Zm-4-26.2a4.3,4.3,0,0,1-2.8-1.1,3.5,3.5,0,0,1-1.3-2.8q0-2.6,2.5-5.7t5.1-3.2a4.2,4.2,0,0,1,2.9,1.1,4.1,4.1,0,0,1,1.2,3.1,9.3,9.3,0,0,1-2.4,5.6Q54.7,47.2,51.9,47.2Z" fill="#1b98e0"/>
<path d="M94.9,62.8q-10.3,11.5-10.3,16,0,2.5,2.1,2.5A8.8,8.8,0,0,0,91,79.5q2.7-1.8,8.5-6.4v4Q91.2,85.4,86.8,89t-7.3,3.6q-4.8,0-4.8-6.3a12,12,0,0,1,.6-3.7,24.3,24.3,0,0,1,1.6-3.8l3.1-5.6,4.9-8.3q-3.3,1.7-8.4,6.7a65.3,65.3,0,0,0-5.6,6L66.1,84a49.7,49.7,0,0,1-3.8,4.7,3.5,3.5,0,0,1-2.4,1.2q-1.9,0-3.5-3.9a24.3,24.3,0,0,1-1.6-9.1,13.9,13.9,0,0,1,.7-5,33.8,33.8,0,0,1,2.9-5.2,57.3,57.3,0,0,1,7-9.1q2.9-2.9,5.6-2.9a6.1,6.1,0,0,1,3,.6,2.1,2.1,0,0,1,1.1,2,2.6,2.6,0,0,1-.4,1.2L74,59.7l-1.8,2.1Q62.9,72,62.9,75t1.1,1.7,2.7-2.3L72,68.5a95.3,95.3,0,0,1,7.6-7.6,81.5,81.5,0,0,1,9.9-7.7Q92.6,51,94.6,51t1.8,2.6a15.6,15.6,0,0,1,.9,5.2Q97.4,60.1,94.9,62.8Z" fill="#1b98e0"/>
</svg>
