<svg xmlns="http://www.w3.org/2000/svg" width="482" height="238.3">
  <path fill="#13293d" d="M481.5 104.6a4.1 4.1 0 0 0-1.1 2.9v22.4a4.1 4.1 0 0 0 1.1 2.9v52.4a11.9 11.9 0 0 0 0 10v4a36.1 36.1 0 0 1-36.1 36.1h-261a4.7 4.7 0 0 0-3.2-1.1h-76.7a4.7 4.7 0 0 0-3.2 1.1H36.6A36.1 36.1 0 0 1 .5 199.2v-161A36.1 36.1 0 0 1 36.6 2.1H100a4.8 4.8 0 0 0 3.5 1.1h33.3a5 5 0 0 0 3.5-1.1h305.1a36.1 36.1 0 0 1 36.1 36.1z"/>
  <path fill="#22a7f0" d="M1 38.2A35.6 35.6 0 0 1 36.6 2.6h63.2a5.3 5.3 0 0 0 3.6 1.1h33.3a5.5 5.5 0 0 0 3.6-1.1h305A35.6 35.6 0 0 1 481 38.1v66.2a4.6 4.6 0 0 0-1.1 3.1v22.4a4.6 4.6 0 0 0 1.1 3.2v52a12.8 12.8 0 0 0 0 10.4v3.8a35.6 35.6 0 0 1-35.6 35.6H184.6a5.2 5.2 0 0 0-3.4-1.1h-76.7a5.2 5.2 0 0 0-3.4 1.1H36.6A35.6 35.6 0 0 1 1 199.2v-161m-1 0v161a36.6 36.6 0 0 0 36.6 36.6h65a4.2 4.2 0 0 1 3-1.1h76.7a4.2 4.2 0 0 1 3 1.1h261.1a36.6 36.6 0 0 0 36.6-36.6v-4.1a11.5 11.5 0 0 1 0-9.8v-52.7a3.5 3.5 0 0 1-1.1-2.7v-22.4a3.5 3.5 0 0 1 1.1-2.7V38.2a36.6 36.6 0 0 0-36.6-36.6H140a4.5 4.5 0 0 1-3.3 1.1h-33.3a4.3 4.3 0 0 1-3.3-1.1H36.6A36.6 36.6 0 0 0 0 38.2z"/>
  <path fill="#22a7f0" d="M5.9 38.5A31 31 0 0 1 36.8 7.6h408.3A31 31 0 0 1 476 38.5V199a31 31 0 0 1-30.9 30.9H36.8A31 31 0 0 1 5.9 199V38.5m-1 0V199a31.9 31.9 0 0 0 31.9 31.9h408.3A31.9 31.9 0 0 0 477 199V38.5a31.9 31.9 0 0 0-31.9-31.9H36.8A31.9 31.9 0 0 0 4.9 38.5z"/>
  <path fill="#22a7f0" d="M433.3 118.7a16.8 16.8 0 1 1 0 .1m-1 0a17.7 17.7 0 0 0 17.7 17.7 17.8 17.8 0 1 0-17.7-17.8z"/>
  <path fill="#22a7f0" d="M436 118.7a14 14 0 1 1 14 14 14 14 0 0 1-14-14m-1 0a15 15 0 1 0 15-15 15 15 0 0 0-15 15zM29.7 102.1a1.5 1.5 0 1 1 2.9 0v33.3a1.5 1.5 0 0 1-2.9 0v-33.3m-1 0v33.3a2.5 2.5 0 1 0 5 0v-33.3a2.5 2.5 0 1 0-5 0zm-1 51.8a3.4 3.4 0 1 1 3.4 3.4 3.4 3.4 0 0 1-3.4-3.4m-1 0a4.4 4.4 0 0 0 4.4 4.4 4.4 4.4 0 0 0 0-8.7 4.4 4.4 0 0 0-4.4 4.4zm-12.6-35.2a2 2 0 1 1 2 2 2 2 0 0 1-2-2m-1 0a3 3 0 1 0 3-3 3 3 0 0 0-3 3z"/>
  <path fill="#13293d" stroke="#22a7f0" stroke-miterlimit="10" d="M181.8 234.8v.3a2.2 2.2 0 0 1-2.2 2.2h-31.1a2.2 2.2 0 0 1-2.2-2.2v-.5m-5.5.2v.5a2.2 2.2 0 0 1-2.2 2.2h-31a2.2 2.2 0 0 1-2.2-2.2v-.3m-23.8.9v.8a1.1 1.1 0 0 1-1.1 1.1H63a1.1 1.1 0 0 1-1-1.1v-.8M102.6 3v-.3a2.2 2.2 0 0 1 2.2-2.2h30.6a2.2 2.2 0 0 1 2.2 2.2V3"/>
  <path fill="#1b98e0" d="M423.5 221.1a.5.5 0 0 1-.5.5H58.6V16.5a.5.5 0 0 1 .5-.5H423a.5.5 0 0 1 .5.5z"/>
  <path fill="#22a7f0" d="M59 16.4h364v204.7H59V16.4m-1 0v204.7a1 1 0 0 0 1 1h364a1 1 0 0 0 1-1V16.4a1 1 0 0 0-1-1H59a1 1 0 0 0-1 1z"/>
</svg>
