<svg xmlns="http://www.w3.org/2000/svg" width="127" height="127" viewBox="0 0 127 127">
  <!-- <path fill="none" stroke="#1b98e0" stroke-width="2" stroke-miterlimit="10" d="M1 1h125v125H1z"/> -->
  <path fill="#1b98e0" d="M33.9 37.2S28.1 67.5 52 82.8l1.6 1.1c3.3 2.3 23.5 14.4 48.1-.3A38.6 38.6 0 0 1 63 101.1a47.7 47.7 0 0 1-28-14.7C25.2 76 15.4 58 33.9 37.2z"/>
  <path fill="#1b98e0" d="M52.3 33s-4.2 21.9 13.4 32.4c0 0 15.1 11.3 34 0a27 27 0 0 1-27.8 12.2A33.4 33.4 0 0 1 53 67.4c-6.9-7.3-13.7-19.9-.7-34.4z"/>
  <path fill="#1b98e0" d="M70.3 25.5s-2.9 15.3 9.4 22.6c0 0 10.6 7.9 23.8 0a18.9 18.9 0 0 1-19.3 8.6 23.4 23.4 0 0 1-13.5-7.2c-4.7-5.1-9.5-13.9-.4-24z"/>
</svg>
