<svg xmlns="http://www.w3.org/2000/svg" width="600" height="343">
  <path fill="#13293d" d="M77 342.5c-48.8 0-73.4-7.7-76.5-8.7v-2.1h599v2.1c-3.1 1-27.7 8.7-76.5 8.7z"/>
  <path fill="#1b98e0" d="M599 332.2v1.2c-4.2 1.4-28.8 8.6-76 8.6H77c-47.2 0-71.7-7.2-76-8.6v-1.2h598m1-1H0v2.9s24.2 8.9 77 8.9h446c52.7 0 77-8.8 77-8.8v-2.9z"/>
  <path fill="#22a7f0" d="M356.7 332.2v1.5a6.9 6.9 0 0 1-3.7.9H247a6.9 6.9 0 0 1-3.7-.9v-1.5h113.4m1-1H242.3v2.9s1.3 1.4 4.7 1.4h106c3.4 0 4.7-1.4 4.7-1.4v-2.9z"/>
  <path fill="none" stroke="#22a7f0" stroke-miterlimit="10" d="M357.7 333.8h242.1m-357.5.2H.2"/>
  <path fill="#fff" d="M300 11.6a.4.4 0 1 1-.4.4.4.4 0 0 1 .4-.4m0-2a2.4 2.4 0 1 0 2.4 2.4 2.4 2.4 0 0 0-2.4-2.4z"/>
  <path fill="#13293d" d="M57.7 317.1v-301A15.1 15.1 0 0 1 72.8 1h454.4a15.1 15.1 0 0 1 15.1 15.1v301z"/>
  <path fill="#22a7f0" d="M527.2 2a14.1 14.1 0 0 1 14.1 14.1v300H58.7v-300A14.1 14.1 0 0 1 72.8 2h454.4m0-2H72.8a16.1 16.1 0 0 0-16.1 16.1v302h486.6v-302A16.1 16.1 0 0 0 527.2 0z"/>
  <path fill="#13293d" d="M59 331.1a15.6 15.6 0 0 1-1.7-7.2V16.1A15.6 15.6 0 0 1 72.8.5h454.4a15.6 15.6 0 0 1 15.6 15.6V324a15.6 15.6 0 0 1-1.7 7.2z"/>
  <path fill="#1b98e0" d="M527.2 1a15.1 15.1 0 0 1 15.1 15.1V324a15.1 15.1 0 0 1-1.5 6.7H59.3a15.1 15.1 0 0 1-1.5-6.7V16.1A15.1 15.1 0 0 1 72.8 1h454.4m0-1H72.8a16.1 16.1 0 0 0-16.1 16.1V324a16 16 0 0 0 1.9 7.7h482.7a16 16 0 0 0 1.9-7.7V16.1a16.1 16.1 0 0 0-16-16.1z"/>
  <path fill="#22a7f0" d="M290.3 320.9c0-.8-.1-1.7-.1-2.4l-.7 2.1-1 2.7h-.5l-.9-2.7c-.3-.8-.5-1.5-.6-2.2 0 .7-.1 1.6-.1 2.5v2.4h-.7l.4-5.6h.9l1 2.7c.2.7.4 1.3.6 1.9.1-.6.3-1.2.6-1.9l1-2.7h.9l.3 5.6h-.7zm3.9 2.4v-.5a1.5 1.5 0 0 1-1.2.6 1.1 1.1 0 0 1-1.2-1.2c0-1 .9-1.5 2.4-1.5a.8.8 0 0 0-.9-.9 2 2 0 0 0-1 .3l-.2-.5a2.5 2.5 0 0 1 1.3-.4c1.2 0 1.5.8 1.5 1.6v1.5a5.6 5.6 0 0 0 .1 1zm-.1-2c-.8 0-1.7.1-1.7.9a.6.6 0 0 0 .7.7 1 1 0 0 0 1-.7v-.9zm4.4 1.9a2.7 2.7 0 0 1-1.2.2 1.9 1.9 0 0 1-2-2 2 2 0 0 1 2.2-2.1l1 .2-.2.6-.8-.2a1.5 1.5 0 0 0 0 3l.9-.2zm.6-5.4h1.3a2.3 2.3 0 0 1 1.5.4 1.2 1.2 0 0 1 .5 1 1.3 1.3 0 0 1-.9 1.2 1.4 1.4 0 0 1 1.2 1.4 1.5 1.5 0 0 1-.5 1.1 2.8 2.8 0 0 1-1.9.5h-1.1zm.7 2.3h.7c.8 0 1.2-.4 1.2-.9s-.5-.9-1.2-.9h-.6zm0 2.7h.6c.7 0 1.4-.3 1.4-1.1s-.7-1.1-1.4-1.1h-.6zm7.1-1.5a2 2 0 0 1-2 2.1 1.9 1.9 0 0 1-1.9-2.1 2 2 0 0 1 2-2.1 1.9 1.9 0 0 1 1.9 2.1zm-3.2 0c0 .9.5 1.5 1.2 1.5s1.2-.7 1.2-1.6-.3-1.5-1.2-1.5-1.2.9-1.2 1.7zm7.4 0a2 2 0 0 1-2 2.1 1.9 1.9 0 0 1-1.9-2.1 2 2 0 0 1 2-2.1 1.9 1.9 0 0 1 1.9 2.1zm-3.2 0c0 .9.5 1.5 1.2 1.5s1.2-.7 1.2-1.6-.3-1.5-1.2-1.5-1.1.9-1.1 1.7zm4.6-.1l.4-.5 1.2-1.4h.9l-1.5 1.6 1.8 2.4h-.9l-1.4-1.9-.4.4v1.5h-.7v-5.9h.7z"/>
  <path fill="#1b98e0" d="M73.8 23.4h452.4v282.72H73.8z"/>
</svg>
