<svg xmlns="http://www.w3.org/2000/svg" width="125" height="28.6" viewBox="0 0 125 28.6"><title>logo.svg</title><path d="M4.7,28.6H0v-5a4,4,0,0,1,.2-1.1,3.4,3.4,0,0,1,.6-1.1L16.6.9A2.2,2.2,0,0,1,18.4,0h3.7l-5,6.4" fill="#1b98e0"/><path d="M5.5,21.3a3.4,3.4,0,0,0-.6,1.1,4,4,0,0,0-.2,1.1v5H22.1V0Z" fill="#13293d"/><path d="M41,10.7a5.7,5.7,0,0,0-2.1-1.5,7.1,7.1,0,0,0-2.9-.5l-1.8.2-1.6.6-1.4.9L30,11.4l-.3-1.6a1.2,1.2,0,0,0-1.2-.9H25.5V28.6h4.7V14.4a8.3,8.3,0,0,1,2-1.5,4.9,4.9,0,0,1,2.3-.6,3.1,3.1,0,0,1,2.5,1,4.2,4.2,0,0,1,.8,2.8V28.6h4.7V16.1a10,10,0,0,0-.4-3A6.8,6.8,0,0,0,41,10.7Z" fill="#13293d"/><path d="M60.5,23.3a1.3,1.3,0,0,0-.8.3l-.8.6-1.2.6a5,5,0,0,1-1.8.3,4.7,4.7,0,0,1-2-.4,4.2,4.2,0,0,1-1.5-1.3,6,6,0,0,1-1-2.1,10.6,10.6,0,0,1-.3-2.8,11,11,0,0,1,.3-2.7,5.8,5.8,0,0,1,.9-2,4.1,4.1,0,0,1,1.6-1.3A5,5,0,0,1,56,12l1.6.2,1.1.5.8.5.7.2.6-.2.4-.4,1.2-1.7a9.5,9.5,0,0,0-3-2,9.8,9.8,0,0,0-3.9-.7,10.3,10.3,0,0,0-4.1.8,8.4,8.4,0,0,0-3,2.1,9.1,9.1,0,0,0-1.8,3.2,12.5,12.5,0,0,0-.6,4,12.3,12.3,0,0,0,.7,4.3A9.6,9.6,0,0,0,48.7,26a8,8,0,0,0,2.8,2,8.7,8.7,0,0,0,3.4.7l2.1-.2,2-.5L61,27a8.6,8.6,0,0,0,1.7-1.5l-1.4-1.7A1,1,0,0,0,60.5,23.3Z" fill="#13293d"/><rect x="66" y="0.1" width="4.7" height="28.53" fill="#13293d"/><rect x="76.4" y="8.9" width="4.7" height="19.7" fill="#13293d"/><path d="M102,10.7a5.7,5.7,0,0,0-2.1-1.5A7.1,7.1,0,0,0,97,8.6l-1.8.2-1.6.6-1.4.9-1.3,1.1-.3-1.6a1.2,1.2,0,0,0-1.2-.9H86.5V28.6h4.7V14.4a8.3,8.3,0,0,1,2-1.5,4.9,4.9,0,0,1,2.3-.6,3.1,3.1,0,0,1,2.5,1,4.2,4.2,0,0,1,.8,2.8V28.6h4.7V16.1a10,10,0,0,0-.4-3A6.8,6.8,0,0,0,102,10.7Z" fill="#13293d"/><path d="M124.4,19l.3-.3a1.4,1.4,0,0,0,.2-.6,6.9,6.9,0,0,0,0-.9,10.6,10.6,0,0,0-.6-3.8,7.9,7.9,0,0,0-1.8-2.8,7.5,7.5,0,0,0-2.7-1.7,9.6,9.6,0,0,0-3.4-.6,9.8,9.8,0,0,0-4,.8,8.8,8.8,0,0,0-3,2.1,9.1,9.1,0,0,0-1.9,3.1,10.9,10.9,0,0,0-.7,3.8,12.8,12.8,0,0,0,.7,4.6,9.5,9.5,0,0,0,2.1,3.3,8.5,8.5,0,0,0,3.1,2,10.5,10.5,0,0,0,3.8.7l2.1-.2L121,28l2-1a7.9,7.9,0,0,0,1.8-1.5l-1.4-1.7-.4-.3h-.5l-.9.3-1.1.6-1.5.6a6.5,6.5,0,0,1-2,.3,5.1,5.1,0,0,1-3.8-1.4,6.7,6.7,0,0,1-1.6-4.5h12.7Zm-12.6-2.8a5.8,5.8,0,0,1,1.5-3.3,4.4,4.4,0,0,1,3.2-1.2,4.5,4.5,0,0,1,1.9.3,3.6,3.6,0,0,1,1.3,1,4,4,0,0,1,.8,1.4,5.9,5.9,0,0,1,.2,1.7Z" fill="#13293d"/><polygon points="81.1 0.1 80.7 0.1 76.9 0.1 76.4 0.1 76.4 0.6 76.4 4.3 76.4 4.8 76.9 4.8 80.7 4.8 81.1 4.8 81.1 4.3 81.1 0.5 81.1 0.1" fill="#13293d"/></svg>