<svg xmlns="http://www.w3.org/2000/svg" width="127" height="127" viewBox="0 0 127 127"><title>photoshop</title>
  <!-- <rect x="1" y="1" width="125" height="125" fill="none" stroke="#1b98e0" stroke-miterlimit="10" stroke-width="2"/> -->
  <path d="M38.6,69.5V88.3H31.8V38.1H46.6a27.8,27.8,0,0,1,8.3,1.1,15.9,15.9,0,0,1,5.8,3.1,12.6,12.6,0,0,1,3.4,4.9,17.3,17.3,0,0,1,1.1,6.4,16.3,16.3,0,0,1-1.2,6.4,13.8,13.8,0,0,1-3.6,5,16.7,16.7,0,0,1-5.9,3.3,25.2,25.2,0,0,1-8,1.2Zm0-5.4h8.1a15.6,15.6,0,0,0,5.1-.8,10.5,10.5,0,0,0,3.7-2.2,9,9,0,0,0,2.3-3.3,11.3,11.3,0,0,0,.8-4.2,9.6,9.6,0,0,0-3-7.5q-3-2.7-8.9-2.7H38.6Z" fill="#1b98e0"/>
  <path d="M93.2,58.7a1.4,1.4,0,0,1-1.3.8,2.4,2.4,0,0,1-1.2-.4l-1.6-.9-2.3-.9a10.9,10.9,0,0,0-3.1-.4,9.3,9.3,0,0,0-2.8.4,6.8,6.8,0,0,0-2.2,1.1,4.9,4.9,0,0,0-1.4,1.6,4.4,4.4,0,0,0-.5,2,3.4,3.4,0,0,0,.8,2.3,6.8,6.8,0,0,0,2.1,1.6l2.9,1.2L86,68.2l3.4,1.3a12.3,12.3,0,0,1,2.9,1.8,8,8,0,0,1,2.1,2.6,7.9,7.9,0,0,1,.8,3.7,11.6,11.6,0,0,1-.9,4.5,9.9,9.9,0,0,1-2.6,3.6A12.5,12.5,0,0,1,87.5,88a17.3,17.3,0,0,1-5.7.9,17.9,17.9,0,0,1-6.7-1.2A17,17,0,0,1,70,84.6l1.5-2.4a2.1,2.1,0,0,1,.7-.7,1.9,1.9,0,0,1,1-.2,2.3,2.3,0,0,1,1.3.5l1.7,1.1,2.4,1.1a11,11,0,0,0,3.6.5,9.7,9.7,0,0,0,3.2-.5,6.7,6.7,0,0,0,2.3-1.3,5.1,5.1,0,0,0,1.3-1.9,5.8,5.8,0,0,0,.4-2.2,3.7,3.7,0,0,0-.8-2.4,6.6,6.6,0,0,0-2.1-1.6,17,17,0,0,0-3-1.2l-3.4-1.1-3.4-1.3a11.9,11.9,0,0,1-3-1.8,8.2,8.2,0,0,1-2.1-2.7,8.7,8.7,0,0,1-.8-3.9,9.4,9.4,0,0,1,.8-3.9,9.6,9.6,0,0,1,2.4-3.3,12.1,12.1,0,0,1,4-2.3,15.8,15.8,0,0,1,5.4-.8,16.9,16.9,0,0,1,6.3,1.1,14.9,14.9,0,0,1,4.8,3Z" fill="#1b98e0"/>
</svg>
