<svg xmlns="http://www.w3.org/2000/svg" width="127" height="127" viewBox="0 0 127 127"><title>Premiere</title>
  <!-- <rect x="1" y="1" width="125" height="125" fill="none" stroke="#1b98e0" stroke-miterlimit="10" stroke-width="2"/> -->
  <path d="M38.9,69.8V88.6H32.2V38.4H47a27.8,27.8,0,0,1,8.3,1.1,15.9,15.9,0,0,1,5.8,3.1,12.6,12.6,0,0,1,3.4,4.9A17.3,17.3,0,0,1,65.7,54a16.3,16.3,0,0,1-1.2,6.4,13.8,13.8,0,0,1-3.6,5A16.7,16.7,0,0,1,55,68.6a25.2,25.2,0,0,1-8,1.2Zm0-5.4h8a15.6,15.6,0,0,0,5.1-.8,10.5,10.5,0,0,0,3.7-2.2,8.9,8.9,0,0,0,2.3-3.3,11.3,11.3,0,0,0,.8-4.2,9.6,9.6,0,0,0-3-7.5q-3-2.7-8.9-2.7h-8Z" fill="#1b98e0"/>
  <path d="M73.3,88.6V53.1h3.6a2,2,0,0,1,1.4.4,2.4,2.4,0,0,1,.5,1.3l.4,5.5a16.2,16.2,0,0,1,4.5-5.8,10.6,10.6,0,0,1,8.9-1.7,9.3,9.3,0,0,1,2.2.9L94,58.4a1.1,1.1,0,0,1-1.1.9l-1.5-.3a9.5,9.5,0,0,0-2.8-.3,8,8,0,0,0-5.4,1.9A14.2,14.2,0,0,0,79.5,66V88.6Z" fill="#1b98e0"/>
</svg>
