<svg xmlns="http://www.w3.org/2000/svg" width="127" height="127" viewBox="0 0 127 127"><title>sketch</title>
  <!-- <rect x="1" y="1" width="125" height="125" fill="none" stroke="#1b98e0" stroke-miterlimit="10" stroke-width="2"/> -->
  <polyline points="63.4 27.5 77.5 27.5 91.6 33.7 103.2 46.6 63.4 99.9 88.6 59.4" fill="none" stroke="#1b98e0" stroke-miterlimit="10" stroke-width="2"/>
  <polyline points="77.5 27.5 63.4 33.7 77.5 39.9" fill="none" stroke="#1b98e0" stroke-miterlimit="10" stroke-width="2"/>
  <polygon points="103.2 46.6 88.6 59.4 90.5 43.9 103.2 46.6" fill="none" stroke="#1b98e0" stroke-linejoin="bevel" stroke-width="2"/>
  <polyline points="63.4 39.9 77.5 39.9 91.6 33.7 90.5 43.9 77.5 39.9 88.6 59.4 63.4 48.1 78.4 41.4" fill="none" stroke="#1b98e0" stroke-linejoin="bevel" stroke-width="2"/>
  <line x1="63.4" y1="59.4" x2="88.6" y2="59.4" fill="none" stroke="#1b98e0" stroke-miterlimit="10" stroke-width="2"/>
  <polyline points="63.6 27.5 49.5 27.5 35.4 33.7 23.8 46.6 63.6 99.9 38.4 59.4" fill="none" stroke="#1b98e0" stroke-miterlimit="10" stroke-width="2"/>
  <polyline points="49.5 27.5 63.6 33.7 49.5 39.9" fill="none" stroke="#1b98e0" stroke-miterlimit="10" stroke-width="2"/>
  <polygon points="23.8 46.6 38.4 59.4 36.5 43.9 23.8 46.6" fill="none" stroke="#1b98e0" stroke-linejoin="bevel" stroke-width="2"/>
  <polyline points="63.6 39.9 49.5 39.9 35.4 33.7 36.5 43.9 49.5 39.9 38.4 59.4 63.6 48.1 48.6 41.4" fill="none" stroke="#1b98e0" stroke-linejoin="bevel" stroke-width="2"/>
  <line x1="63.6" y1="59.4" x2="38.4" y2="59.4" fill="none" stroke="#1b98e0" stroke-miterlimit="10" stroke-width="2"/>
</svg>
