<svg xmlns="http://www.w3.org/2000/svg" width="127" height="127">
  <path fill="#1b98e0" d="M70.2 75.9V64.8l-7.1 5.5 7.1 5.6m-17.6-1.5l4.2-4-4.2-4.2v8.2"/>
  <path fill="#1b98e0" d="M97.5 56.5a18.4 18.4 0 0 0-34.9-11.2 18.4 18.4 0 0 0-27.7 11.3l-3-.2a18.4 18.4 0 1 0 0 36.7h63.2a18.4 18.4 0 0 0 2.4-36.6zM77 81.2l-6.8 2.6-10.6-10.7-6.9 5.3-2.8-1.4V63.7l2.9-1.4 6.8 5.2 10.6-10.7 6.9 2.8z"/>
  <!-- <path fill="none" stroke="#1b98e0" stroke-width="2" stroke-miterlimit="10" d="M1 1h125v125H1z"/> -->
</svg>
