<svg viewBox="0 0 17 17" xmlns="http://www.w3.org/2000/svg">
   <path fill="#FFFFFF" d="M 16.8313 4.1875 C 16.2196 4.4609 15.5624 4.645 14.8726 4.728 C 15.5767 4.3037 16.1173 3.6309 16.3719 2.8291 C 15.7131 3.2227 14.9833 3.5078 14.2064 3.6621 C 13.5844 2.9951 12.698 2.5776 11.717 2.5776 C 9.8336 2.5776 8.3069 4.1143 8.3069 6.0107 C 8.3069 6.2803 8.3369 6.542 8.395 6.7935 C 5.5608 6.6504 3.0479 5.2832 1.3657 3.2061 C 1.0723 3.7134 0.9041 4.3027 0.9041 4.9326 C 0.9041 6.123 1.5062 7.1738 2.4213 7.79 C 1.8622 7.7725 1.3364 7.6182 0.8767 7.3604 C 0.8762 7.375 0.8762 7.3896 0.8762 7.4038 C 0.8762 9.0674 2.0519 10.4551 3.6119 10.77 C 3.3257 10.8491 3.0245 10.8906 2.7135 10.8906 C 2.4937 10.8906 2.2802 10.8691 2.0719 10.8291 C 2.5059 12.1934 3.7653 13.1855 5.2576 13.2139 C 4.0905 14.1348 2.62 14.6831 1.0221 14.6831 C 0.7469 14.6831 0.4756 14.667 0.2086 14.6353 C 1.718 15.6094 3.5105 16.1777 5.4364 16.1777 C 11.7092 16.1777 15.1394 10.9463 15.1394 6.4092 C 15.1394 6.2607 15.1361 6.1123 15.1295 5.9648 C 15.7958 5.4805 16.374 4.876 16.8313 4.1875 Z"></path>
</svg>
