<svg xmlns="http://www.w3.org/2000/svg" width="127" height="127" viewBox="0 0 127 127">
  <!-- <path fill="none" stroke="#1b98e0" stroke-width="2" stroke-miterlimit="10" d="M1 1h125v125H1z"/> -->
  <path fill="#1b98e0" d="M66.3 28.5a32.6 32.6 0 0 1 27.9 11.8s.6 6.4 5.8 6l3 2.9-6.7 7.5-3.3-3.1s-.3-15.7-23 11c0 0 .4.2-.2.7L42 97.6s-3.2 2.6-6-.5c0 0-3.7-2.7-1.4-6.3l30.9-29.9s.7-.6.8-.5 30.9-24.5 0-31.9z"/>
  <path fill="#1b98e0" d="M60.7 28.5a32.6 32.6 0 0 0-27.9 11.8s-.6 6.4-5.8 6l-3 2.9 6.7 7.5 3.3-3.1s.3-15.7 23 11c0 0-.4.2.2.7L85 97.6s3.2 2.6 6-.5c0 0 3.7-2.7 1.4-6.3L61.5 60.9s-.7-.6-.8-.5-30.9-24.5 0-31.9z"/>
</svg>
