<svg xmlns="http://www.w3.org/2000/svg" width="127" height="127" viewBox="0 0 127 127"><title>xcode</title><rect x="1" y="1" width="125" height="125" fill="none" stroke="#1b98e0" stroke-miterlimit="10" stroke-width="2"/><path d="M66.3,28.5A32.6,32.6,0,0,1,94.2,40.3s.6,6.4,5.8,6l3,2.9-6.7,7.5-3.3-3.1s-.3-15.7-23,11c0,0,.4.2-.2.7L42,97.6s-3.2,2.6-6-.5c0,0-3.7-2.7-1.4-6.3L65.5,60.9s.7-.6.8-.5S97.2,35.9,66.3,28.5Z" fill="#1b98e0"/><path d="M60.7,28.5A32.6,32.6,0,0,0,32.8,40.3s-.6,6.4-5.8,6l-3,2.9,6.7,7.5,3.3-3.1s.3-15.7,23,11c0,0-.4.2.2.7L85,97.6s3.2,2.6,6-.5c0,0,3.7-2.7,1.4-6.3L61.5,60.9s-.7-.6-.8-.5S29.8,35.9,60.7,28.5Z" fill="#1b98e0"/></svg>